<mxfile host="app.diagrams.net" modified="2023-10-25T15:47:59.885Z" agent="Mozilla/5.0 (Windows NT 10.0; Win64; x64) AppleWebKit/537.36 (KHTML, like Gecko) Chrome/116.0.0.0 Safari/537.36 OPR/102.0.0.0 (Edition std-1)" etag="L01RYx9jy_S7LS8iezPR" version="22.0.8" type="device">
  <diagram name="Página-1" id="m4aMym4YLJazNHy8Jg4d">
    <mxGraphModel dx="1393" dy="758" grid="1" gridSize="10" guides="1" tooltips="1" connect="1" arrows="1" fold="1" page="1" pageScale="1" pageWidth="827" pageHeight="1169" math="0" shadow="0">
      <root>
        <mxCell id="0" />
        <mxCell id="1" parent="0" />
        <mxCell id="Obrj_j-cfgOJttjoZD4i-1" value="Funcionário" style="rounded=0;whiteSpace=wrap;html=1;" vertex="1" parent="1">
          <mxGeometry x="159" y="240" width="120" height="60" as="geometry" />
        </mxCell>
        <mxCell id="Obrj_j-cfgOJttjoZD4i-2" value="Departamento" style="rounded=0;whiteSpace=wrap;html=1;" vertex="1" parent="1">
          <mxGeometry x="560" y="240" width="120" height="60" as="geometry" />
        </mxCell>
        <mxCell id="Obrj_j-cfgOJttjoZD4i-3" value="Projeto" style="rounded=0;whiteSpace=wrap;html=1;" vertex="1" parent="1">
          <mxGeometry x="159" y="524.5" width="120" height="60" as="geometry" />
        </mxCell>
        <mxCell id="Obrj_j-cfgOJttjoZD4i-4" value="trabalhar" style="rhombus;whiteSpace=wrap;html=1;" vertex="1" parent="1">
          <mxGeometry x="269" y="370" width="80" height="80" as="geometry" />
        </mxCell>
        <mxCell id="Obrj_j-cfgOJttjoZD4i-5" value="associado" style="rhombus;whiteSpace=wrap;html=1;" vertex="1" parent="1">
          <mxGeometry x="380" y="230" width="80" height="80" as="geometry" />
        </mxCell>
        <mxCell id="Obrj_j-cfgOJttjoZD4i-6" value="coordenar" style="rhombus;whiteSpace=wrap;html=1;" vertex="1" parent="1">
          <mxGeometry x="90" y="370" width="80" height="80" as="geometry" />
        </mxCell>
        <mxCell id="Obrj_j-cfgOJttjoZD4i-7" value="" style="endArrow=none;html=1;rounded=0;exitX=1;exitY=1;exitDx=0;exitDy=0;entryX=0.5;entryY=0;entryDx=0;entryDy=0;" edge="1" parent="1" source="Obrj_j-cfgOJttjoZD4i-1" target="Obrj_j-cfgOJttjoZD4i-4">
          <mxGeometry width="50" height="50" relative="1" as="geometry">
            <mxPoint x="390" y="420" as="sourcePoint" />
            <mxPoint x="440" y="370" as="targetPoint" />
          </mxGeometry>
        </mxCell>
        <mxCell id="Obrj_j-cfgOJttjoZD4i-8" value="n" style="text;html=1;strokeColor=none;fillColor=none;align=center;verticalAlign=middle;whiteSpace=wrap;rounded=0;" vertex="1" parent="1">
          <mxGeometry x="249.5" y="330" width="60" height="30" as="geometry" />
        </mxCell>
        <mxCell id="Obrj_j-cfgOJttjoZD4i-9" value="" style="endArrow=none;html=1;rounded=0;entryX=0.5;entryY=1;entryDx=0;entryDy=0;exitX=1;exitY=0;exitDx=0;exitDy=0;" edge="1" parent="1" source="Obrj_j-cfgOJttjoZD4i-3" target="Obrj_j-cfgOJttjoZD4i-4">
          <mxGeometry width="50" height="50" relative="1" as="geometry">
            <mxPoint x="280" y="520" as="sourcePoint" />
            <mxPoint x="440" y="370" as="targetPoint" />
          </mxGeometry>
        </mxCell>
        <mxCell id="Obrj_j-cfgOJttjoZD4i-10" value="n" style="text;html=1;strokeColor=none;fillColor=none;align=center;verticalAlign=middle;whiteSpace=wrap;rounded=0;" vertex="1" parent="1">
          <mxGeometry x="249.5" y="470" width="59" height="40" as="geometry" />
        </mxCell>
        <mxCell id="Obrj_j-cfgOJttjoZD4i-11" value="" style="endArrow=none;html=1;rounded=0;exitX=0.5;exitY=0;exitDx=0;exitDy=0;entryX=0;entryY=1;entryDx=0;entryDy=0;" edge="1" parent="1" source="Obrj_j-cfgOJttjoZD4i-6" target="Obrj_j-cfgOJttjoZD4i-1">
          <mxGeometry width="50" height="50" relative="1" as="geometry">
            <mxPoint x="390" y="420" as="sourcePoint" />
            <mxPoint x="440" y="370" as="targetPoint" />
          </mxGeometry>
        </mxCell>
        <mxCell id="Obrj_j-cfgOJttjoZD4i-12" value="1" style="text;html=1;strokeColor=none;fillColor=none;align=center;verticalAlign=middle;whiteSpace=wrap;rounded=0;" vertex="1" parent="1">
          <mxGeometry x="80" y="330" width="60" height="30" as="geometry" />
        </mxCell>
        <mxCell id="Obrj_j-cfgOJttjoZD4i-13" value="1" style="text;html=1;strokeColor=none;fillColor=none;align=center;verticalAlign=middle;whiteSpace=wrap;rounded=0;" vertex="1" parent="1">
          <mxGeometry x="99" y="475" width="60" height="30" as="geometry" />
        </mxCell>
        <mxCell id="Obrj_j-cfgOJttjoZD4i-14" value="" style="endArrow=none;html=1;rounded=0;exitX=0.5;exitY=1;exitDx=0;exitDy=0;entryX=0;entryY=0;entryDx=0;entryDy=0;" edge="1" parent="1" source="Obrj_j-cfgOJttjoZD4i-6" target="Obrj_j-cfgOJttjoZD4i-3">
          <mxGeometry width="50" height="50" relative="1" as="geometry">
            <mxPoint x="390" y="420" as="sourcePoint" />
            <mxPoint x="440" y="370" as="targetPoint" />
          </mxGeometry>
        </mxCell>
        <mxCell id="Obrj_j-cfgOJttjoZD4i-15" value="" style="endArrow=none;html=1;rounded=0;exitX=1;exitY=0.5;exitDx=0;exitDy=0;entryX=0;entryY=0.5;entryDx=0;entryDy=0;" edge="1" parent="1" source="Obrj_j-cfgOJttjoZD4i-1" target="Obrj_j-cfgOJttjoZD4i-5">
          <mxGeometry width="50" height="50" relative="1" as="geometry">
            <mxPoint x="390" y="420" as="sourcePoint" />
            <mxPoint x="440" y="370" as="targetPoint" />
          </mxGeometry>
        </mxCell>
        <mxCell id="Obrj_j-cfgOJttjoZD4i-16" value="1" style="text;html=1;strokeColor=none;fillColor=none;align=center;verticalAlign=middle;whiteSpace=wrap;rounded=0;" vertex="1" parent="1">
          <mxGeometry x="300" y="240" width="60" height="30" as="geometry" />
        </mxCell>
        <mxCell id="Obrj_j-cfgOJttjoZD4i-17" value="" style="endArrow=none;html=1;rounded=0;entryX=1;entryY=0.5;entryDx=0;entryDy=0;exitX=0;exitY=0.5;exitDx=0;exitDy=0;" edge="1" parent="1" source="Obrj_j-cfgOJttjoZD4i-2" target="Obrj_j-cfgOJttjoZD4i-5">
          <mxGeometry width="50" height="50" relative="1" as="geometry">
            <mxPoint x="390" y="420" as="sourcePoint" />
            <mxPoint x="440" y="370" as="targetPoint" />
          </mxGeometry>
        </mxCell>
        <mxCell id="Obrj_j-cfgOJttjoZD4i-18" value="n" style="text;html=1;strokeColor=none;fillColor=none;align=center;verticalAlign=middle;whiteSpace=wrap;rounded=0;" vertex="1" parent="1">
          <mxGeometry x="460" y="240" width="60" height="30" as="geometry" />
        </mxCell>
        <mxCell id="Obrj_j-cfgOJttjoZD4i-19" value="ID" style="ellipse;whiteSpace=wrap;html=1;" vertex="1" parent="1">
          <mxGeometry x="50" y="140" width="120" height="40" as="geometry" />
        </mxCell>
        <mxCell id="Obrj_j-cfgOJttjoZD4i-21" value="ID" style="ellipse;whiteSpace=wrap;html=1;" vertex="1" parent="1">
          <mxGeometry x="460" y="140" width="120" height="40" as="geometry" />
        </mxCell>
        <mxCell id="Obrj_j-cfgOJttjoZD4i-22" value="ID" style="ellipse;whiteSpace=wrap;html=1;" vertex="1" parent="1">
          <mxGeometry x="339" y="470" width="120" height="40" as="geometry" />
        </mxCell>
        <mxCell id="Obrj_j-cfgOJttjoZD4i-24" value="Nome" style="ellipse;whiteSpace=wrap;html=1;" vertex="1" parent="1">
          <mxGeometry x="159" y="100" width="120" height="40" as="geometry" />
        </mxCell>
        <mxCell id="Obrj_j-cfgOJttjoZD4i-25" value="Salário" style="ellipse;whiteSpace=wrap;html=1;" vertex="1" parent="1">
          <mxGeometry x="249.5" y="140" width="120" height="40" as="geometry" />
        </mxCell>
        <mxCell id="Obrj_j-cfgOJttjoZD4i-26" value="" style="endArrow=none;html=1;rounded=0;exitX=0.5;exitY=0;exitDx=0;exitDy=0;entryX=0.5;entryY=1;entryDx=0;entryDy=0;" edge="1" parent="1" source="Obrj_j-cfgOJttjoZD4i-1" target="Obrj_j-cfgOJttjoZD4i-25">
          <mxGeometry width="50" height="50" relative="1" as="geometry">
            <mxPoint x="450" y="360" as="sourcePoint" />
            <mxPoint x="500" y="310" as="targetPoint" />
          </mxGeometry>
        </mxCell>
        <mxCell id="Obrj_j-cfgOJttjoZD4i-27" value="" style="endArrow=none;html=1;rounded=0;entryX=0.5;entryY=1;entryDx=0;entryDy=0;exitX=0.5;exitY=0;exitDx=0;exitDy=0;" edge="1" parent="1" source="Obrj_j-cfgOJttjoZD4i-1" target="Obrj_j-cfgOJttjoZD4i-24">
          <mxGeometry width="50" height="50" relative="1" as="geometry">
            <mxPoint x="160" y="240" as="sourcePoint" />
            <mxPoint x="260" y="210" as="targetPoint" />
          </mxGeometry>
        </mxCell>
        <mxCell id="Obrj_j-cfgOJttjoZD4i-29" value="" style="endArrow=none;html=1;rounded=0;exitX=0.5;exitY=0;exitDx=0;exitDy=0;entryX=0.5;entryY=1;entryDx=0;entryDy=0;" edge="1" parent="1" source="Obrj_j-cfgOJttjoZD4i-1" target="Obrj_j-cfgOJttjoZD4i-19">
          <mxGeometry width="50" height="50" relative="1" as="geometry">
            <mxPoint x="189" y="270" as="sourcePoint" />
            <mxPoint x="280" y="230" as="targetPoint" />
          </mxGeometry>
        </mxCell>
        <mxCell id="Obrj_j-cfgOJttjoZD4i-30" value="Nome" style="ellipse;whiteSpace=wrap;html=1;" vertex="1" parent="1">
          <mxGeometry x="660" y="140" width="120" height="40" as="geometry" />
        </mxCell>
        <mxCell id="Obrj_j-cfgOJttjoZD4i-31" value="" style="endArrow=none;html=1;rounded=0;exitX=0.5;exitY=0;exitDx=0;exitDy=0;entryX=0.5;entryY=1;entryDx=0;entryDy=0;" edge="1" parent="1" source="Obrj_j-cfgOJttjoZD4i-2" target="Obrj_j-cfgOJttjoZD4i-21">
          <mxGeometry width="50" height="50" relative="1" as="geometry">
            <mxPoint x="629" y="240" as="sourcePoint" />
            <mxPoint x="520" y="180" as="targetPoint" />
          </mxGeometry>
        </mxCell>
        <mxCell id="Obrj_j-cfgOJttjoZD4i-32" value="" style="endArrow=none;html=1;rounded=0;exitX=0.5;exitY=0;exitDx=0;exitDy=0;entryX=0.5;entryY=1;entryDx=0;entryDy=0;" edge="1" parent="1" source="Obrj_j-cfgOJttjoZD4i-2" target="Obrj_j-cfgOJttjoZD4i-30">
          <mxGeometry width="50" height="50" relative="1" as="geometry">
            <mxPoint x="630" y="250" as="sourcePoint" />
            <mxPoint x="530" y="190" as="targetPoint" />
          </mxGeometry>
        </mxCell>
        <mxCell id="Obrj_j-cfgOJttjoZD4i-33" value="Nome" style="ellipse;whiteSpace=wrap;html=1;" vertex="1" parent="1">
          <mxGeometry x="339" y="534.5" width="120" height="40" as="geometry" />
        </mxCell>
        <mxCell id="Obrj_j-cfgOJttjoZD4i-34" value="Data de entrega" style="ellipse;whiteSpace=wrap;html=1;" vertex="1" parent="1">
          <mxGeometry x="339" y="590" width="120" height="40" as="geometry" />
        </mxCell>
        <mxCell id="Obrj_j-cfgOJttjoZD4i-35" value="" style="endArrow=none;html=1;rounded=0;entryX=1;entryY=0.5;entryDx=0;entryDy=0;exitX=0;exitY=0.5;exitDx=0;exitDy=0;" edge="1" parent="1" source="Obrj_j-cfgOJttjoZD4i-22" target="Obrj_j-cfgOJttjoZD4i-3">
          <mxGeometry width="50" height="50" relative="1" as="geometry">
            <mxPoint x="450" y="360" as="sourcePoint" />
            <mxPoint x="500" y="310" as="targetPoint" />
          </mxGeometry>
        </mxCell>
        <mxCell id="Obrj_j-cfgOJttjoZD4i-36" value="" style="endArrow=none;html=1;rounded=0;entryX=1;entryY=0.5;entryDx=0;entryDy=0;exitX=0;exitY=0.5;exitDx=0;exitDy=0;" edge="1" parent="1" source="Obrj_j-cfgOJttjoZD4i-33" target="Obrj_j-cfgOJttjoZD4i-3">
          <mxGeometry width="50" height="50" relative="1" as="geometry">
            <mxPoint x="349" y="500" as="sourcePoint" />
            <mxPoint x="289" y="565" as="targetPoint" />
          </mxGeometry>
        </mxCell>
        <mxCell id="Obrj_j-cfgOJttjoZD4i-37" value="" style="endArrow=none;html=1;rounded=0;entryX=1;entryY=0.5;entryDx=0;entryDy=0;exitX=0;exitY=0.5;exitDx=0;exitDy=0;" edge="1" parent="1" source="Obrj_j-cfgOJttjoZD4i-34" target="Obrj_j-cfgOJttjoZD4i-3">
          <mxGeometry width="50" height="50" relative="1" as="geometry">
            <mxPoint x="349" y="565" as="sourcePoint" />
            <mxPoint x="289" y="565" as="targetPoint" />
          </mxGeometry>
        </mxCell>
      </root>
    </mxGraphModel>
  </diagram>
</mxfile>
